<?xml version="1.0" encoding="UTF-8"?>
<svg version="1.1" xmlns="http://www.w3.org/2000/svg" width="200" height="200">
<path d="M0 0 C66 0 132 0 200 0 C200 66 200 132 200 200 C134 200 68 200 0 200 C0 134 0 68 0 0 Z " fill="#FDFEFE" transform="translate(0,0)"/>
<path d="M0 0 C9.49981437 7.79023633 15.02637112 17.2467506 17.75 29.25 C18.05565209 33.14915891 18.08373065 37.02772484 18.0625 40.9375 C18.05686035 42.0102417 18.0512207 43.0829834 18.04541016 44.18823242 C17.82887454 58.28341461 14.36654081 71.00395579 4.5625 81.625 C-5.57743037 90.71597206 -16.46747989 93.88294813 -29.890625 93.53125 C-38.52202947 92.80862079 -45.58825556 89.8218885 -52.25 84.25 C-53.735 82.27 -53.735 82.27 -55.25 80.25 C-55.58 97.08 -55.91 113.91 -56.25 131.25 C-62.19 131.25 -68.13 131.25 -74.25 131.25 C-74.25 91.65 -74.25 52.05 -74.25 11.25 C-87.91040065 11.95470383 -87.91040065 11.95470383 -97.5 19.5625 C-102.65736892 25.98514343 -104.32895627 32.90846847 -104.45532227 41.05004883 C-104.47526749 42.19085403 -104.49521271 43.33165924 -104.51576233 44.5070343 C-104.54083107 46.33853279 -104.54083107 46.33853279 -104.56640625 48.20703125 C-104.58718735 49.46513107 -104.60796844 50.7232309 -104.62937927 52.01945496 C-104.68360465 55.35172286 -104.73387945 58.68400239 -104.78222656 62.01635742 C-104.83261084 65.42176555 -104.88820823 68.8270882 -104.94335938 72.23242188 C-105.05036703 78.90488173 -105.15168302 85.57740666 -105.25 92.25 C-110.86 92.25 -116.47 92.25 -122.25 92.25 C-122.745 44.73 -122.745 44.73 -123.25 -3.75 C-117.97 -3.75 -112.69 -3.75 -107.25 -3.75 C-106.92 2.19 -106.59 8.13 -106.25 14.25 C-104.93 11.61 -103.61 8.97 -102.25 6.25 C-97.13247981 -0.18315797 -91.47565916 -4.45042777 -83.25 -5.75 C-81.26396991 -5.7650752 -79.27694407 -5.72047434 -77.29296875 -5.62890625 C-75.62524414 -5.55639648 -75.62524414 -5.55639648 -73.92382812 -5.48242188 C-72.77333984 -5.42634766 -71.62285156 -5.37027344 -70.4375 -5.3125 C-68.68276367 -5.23418945 -68.68276367 -5.23418945 -66.89257812 -5.15429688 C-64.01147077 -5.02494103 -61.13069722 -4.88818843 -58.25 -4.75 C-57.755 2.675 -57.755 2.675 -57.25 10.25 C-56.1053125 8.4865625 -56.1053125 8.4865625 -54.9375 6.6875 C-42.3875937 -10.0160396 -16.44579577 -11.46506905 0 0 Z " fill="#08A6DD" transform="translate(159.25,46.75)"/>
<path d="M0 0 C9.2578121 5.51790125 12.89964238 13.85811782 16.0546875 23.90234375 C18.30327486 35.85656841 16.00324119 48.79510888 9.5 59.0625 C4.90853708 65.26097495 -0.53226149 68.92527074 -8.10546875 70.44921875 C-16.09788091 71.49758875 -22.57225741 70.7243361 -29.26953125 66.046875 C-35.86542534 60.52293442 -39.96634704 55.28199968 -40.93896484 46.5625 C-41.09990545 42.69992534 -41.10813299 38.86549471 -41.0625 35 C-41.07796875 33.69353516 -41.0934375 32.38707031 -41.109375 31.04101562 C-41.07258245 21.90266718 -39.65844999 14.98275183 -34.875 7.1875 C-25.45442951 -1.97846048 -12.40155916 -5.76596882 0 0 Z " fill="#FAFEFE" transform="translate(143.5625,56.0625)"/>
<path d="M0 0 C2.31 1.98 4.62 3.96 7 6 C4 8 4 8 2 8 C2 22.52 2 37.04 2 52 C1.34 52 0.68 52 0 52 C0 34.84 0 17.68 0 0 Z " fill="#F1FEFE" transform="translate(103,126)"/>
<path d="M0 0 C0.33 0.66 0.66 1.32 1 2 C0.67 2.99 0.34 3.98 0 5 C0.66 5 1.32 5 2 5 C2.33 5.99 2.66 6.98 3 8 C4.65 8 6.3 8 8 8 C8 7.34 8 6.68 8 6 C9.32 6.33 10.64 6.66 12 7 C11.39671875 7.38671875 10.7934375 7.7734375 10.171875 8.171875 C4.17198187 12.07616197 4.17198187 12.07616197 -1 17 C-0.979375 16.236875 -0.95875 15.47375 -0.9375 14.6875 C-0.87057159 11.89814214 -0.87057159 11.89814214 -2 9 C-2.99 9 -3.98 9 -5 9 C-5.33 9.99 -5.66 10.98 -6 12 C-6.33 11.34 -6.66 10.68 -7 10 C-6.02223933 8.51990357 -5.0427506 7.04094856 -4.0625 5.5625 C-3.51722656 4.73878906 -2.97195312 3.91507813 -2.41015625 3.06640625 C-1 1 -1 1 0 0 Z " fill="#10A6D8" transform="translate(108,49)"/>
<path d="M0 0 C2.23901544 1.75761417 2.94481001 2.6304985 3.37231445 5.49267578 C3.3693335 6.4670459 3.36635254 7.44141602 3.36328125 8.4453125 C3.36263672 9.52296875 3.36199219 10.600625 3.36132812 11.7109375 C3.34521484 12.83757812 3.32910156 13.96421875 3.3125 15.125 C3.31572266 16.2284375 3.31894531 17.331875 3.32226562 18.46875 C3.27993198 24.94964599 2.66242847 30.73443296 1 37 C0.34 37 -0.32 37 -1 37 C-0.83628906 35.81535156 -0.67257813 34.63070312 -0.50390625 33.41015625 C0.23465743 26.76308315 0.10691413 20.11670119 0.0625 13.4375 C0.05573242 11.49520508 0.05573242 11.49520508 0.04882812 9.51367188 C0.03712601 6.342399 0.02073113 3.17122454 0 0 Z " fill="#CCF7FD" transform="translate(176,72)"/>
<path d="M0 0 C1.55741701 2.33612551 3.07282045 4.68345953 4.5625 7.0625 C4.99691406 7.75472656 5.43132812 8.44695312 5.87890625 9.16015625 C7 11 7 11 8 13 C6.68 12.67 5.36 12.34 4 12 C4.309375 12.7425 4.61875 13.485 4.9375 14.25 C5.8094925 16.50692176 6.47667007 18.6450153 7 21 C5.68 21.99 4.36 22.98 3 24 C0.71813547 19.52403496 0.71813547 19.52403496 0 17 C0.875 14.4375 0.875 14.4375 2 12 C1.82871956 8.16765785 1.82871956 8.16765785 0 5 C-0.04063832 3.33382885 -0.042721 1.66611905 0 0 Z " fill="#0AA9DD" transform="translate(103,106)"/>
<path d="M0 0 C0.72703125 0.50660156 0.72703125 0.50660156 1.46875 1.0234375 C9.98004256 6.68672063 16.90105585 7.79726972 27 6 C30.06897299 5.15736291 33.03824309 4.16276382 36 3 C31.54428854 7.66788819 27.26729212 9.13851655 21 10 C17.8125 9.6875 17.8125 9.6875 15 9 C11.29577736 8.25915547 8.61118106 7.74997579 5 9 C4.9175 8.21625 4.835 7.4325 4.75 6.625 C4.27193661 3.85250896 4.27193661 3.85250896 1.9375 2.6875 C1.298125 2.460625 0.65875 2.23375 0 2 C0 1.34 0 0.68 0 0 Z " fill="#20A5D3" transform="translate(111,119)"/>
<path d="M0 0 C0.99 0.99 1.98 1.98 3 3 C2.67 3.66 2.34 4.32 2 5 C1.88194823 6.5107757 1.82303551 8.02638831 1.79467773 9.54150391 C1.77473251 10.48232819 1.75478729 11.42315247 1.73423767 12.39248657 C1.71752518 13.41023163 1.70081268 14.42797668 1.68359375 15.4765625 C1.66281265 16.51694672 1.64203156 17.55733093 1.62062073 18.62924194 C1.55510128 21.96109249 1.49622908 25.2930235 1.4375 28.625 C1.39431706 30.88021674 1.35070285 33.13542527 1.30664062 35.390625 C1.19941748 40.92699764 1.09765554 46.46345078 1 52 C0.67 52 0.34 52 0 52 C0 34.84 0 17.68 0 0 Z " fill="#DDFEFF" transform="translate(103,126)"/>
<path d="M0 0 C4.99109807 7.48664711 4.21758744 15.28441422 4 24 C3.67 24 3.34 24 3 24 C3 20.7 3 17.4 3 14 C2.34 14 1.68 14 1 14 C0.67 9.38 0.34 4.76 0 0 Z " fill="#B2E7F5" transform="translate(156,72)"/>
<path d="M0 0 C0.66 0.33 1.32 0.66 2 1 C-1.515625 5.6875 -1.515625 5.6875 -3 7 C-4.32 7 -5.64 7 -7 7 C-7.268125 7.78375 -7.53625 8.5675 -7.8125 9.375 C-9 12 -9 12 -12 14 C-9.96994153 7.54072306 -5.20907574 4.01842986 0 0 Z " fill="#D4F7FC" transform="translate(118,56)"/>
<path d="M0 0 C0.33 0 0.66 0 1 0 C1.03738281 0.62648437 1.07476562 1.25296875 1.11328125 1.8984375 C1.17902344 2.71570312 1.24476562 3.53296875 1.3125 4.375 C1.37050781 5.18710937 1.42851563 5.99921875 1.48828125 6.8359375 C1.82990528 9.37921338 1.82990528 9.37921338 5 11 C3.35 12.65 1.7 14.3 0 16 C0 10.72 0 5.44 0 0 Z " fill="#BDFAFE" transform="translate(101,42)"/>
<path d="M0 0 C1.55741701 2.33612551 3.07282045 4.68345953 4.5625 7.0625 C4.99691406 7.75472656 5.43132812 8.44695312 5.87890625 9.16015625 C7 11 7 11 8 13 C6.68 12.67 5.36 12.34 4 12 C3.67 12.66 3.34 13.32 3 14 C2 12 2 12 1.5 8.9375 C1.31161614 6.11880655 1.31161614 6.11880655 0 5 C-0.04063832 3.33382885 -0.042721 1.66611905 0 0 Z " fill="#28A9D2" transform="translate(103,106)"/>
<path d="M0 0 C0.81129179 2.27161701 1.18227814 3.51944855 0.3125 5.8125 C-0.120625 6.534375 -0.55375 7.25625 -1 8 C-1.70962646 9.24926635 -2.41787338 10.49931697 -3.125 11.75 C-3.74375 12.8225 -4.3625 13.895 -5 15 C-5.66 14.67 -6.32 14.34 -7 14 C-6.66226563 13.40832031 -6.32453125 12.81664063 -5.9765625 12.20703125 C-3.72358842 8.21549047 -1.5380179 4.33441407 0 0 Z " fill="#2AA5D0" transform="translate(158,103)"/>
<path d="M0 0 C0.33 0.99 0.66 1.98 1 3 C1.66 3 2.32 3 3 3 C3 2.01 3 1.02 3 0 C4.32 0.33 5.64 0.66 7 1 C3.535 3.97 3.535 3.97 0 7 C-0.38133299 5.0085944 -0.71325582 3.00720923 -1 1 C-0.67 0.67 -0.34 0.34 0 0 Z " fill="#23A8D7" transform="translate(59,61)"/>
<path d="M0 0 C0.99 0.99 1.98 1.98 3 3 C3.66 3.33 4.32 3.66 5 4 C3.68 6.31 2.36 8.62 1 11 C0.67 11 0.34 11 0 11 C0 7.37 0 3.74 0 0 Z " fill="#C4F9FD" transform="translate(52,51)"/>
<path d="M0 0 C-1.12073862 0.83905565 -2.24674547 1.67107831 -3.375 2.5 C-4.00148438 2.9640625 -4.62796875 3.428125 -5.2734375 3.90625 C-7 5 -7 5 -9 5 C-8.75 3.125 -8.75 3.125 -8 1 C-4.99629127 -1.17509943 -3.43900285 -1.00214129 0 0 Z " fill="#D8F9FC" transform="translate(117,44)"/>
<path d="M0 0 C0.66 0 1.32 0 2 0 C2 0.66 2 1.32 2 2 C2.99 2.33 3.98 2.66 5 3 C0.38 3 -4.24 3 -9 3 C-9 2.67 -9 2.34 -9 2 C-6.94921875 1.77213542 -4.8984375 1.54427083 -2.84765625 1.31640625 C-0.98859771 1.18113386 -0.98859771 1.18113386 0 0 Z " fill="#0DA1D9" transform="translate(48,136)"/>
<path d="M0 0 C0.66 0.33 1.32 0.66 2 1 C-0.25 3.5625 -0.25 3.5625 -3 6 C-4.32 5.67 -5.64 5.34 -7 5 C-4.69 3.35 -2.38 1.7 0 0 Z " fill="#CEF5FD" transform="translate(160,130)"/>
<path d="M0 0 C0.66 0.33 1.32 0.66 2 1 C-0.475 4.465 -0.475 4.465 -3 8 C-4 5 -4 5 -3.1875 2.875 C-2 1 -2 1 0 0 Z " fill="#CFF8FD" transform="translate(153,111)"/>
<path d="M0 0 C2 2 2 2 2.25 5 C2 8 2 8 0 10 C-0.5625 8.0625 -0.5625 8.0625 -1 6 C-0.67 5.67 -0.34 5.34 0 5 C-0.33 4.34 -0.66 3.68 -1 3 C-0.67 2.01 -0.34 1.02 0 0 Z " fill="#11A7DC" transform="translate(57,62)"/>
<path d="M0 0 C1 2 1 2 0.875 4 C0 6 0 6 -2.5625 7.25 C-3.366875 7.4975 -4.17125 7.745 -5 8 C-3.62845496 5.04590299 -2.01136276 2.55991624 0 0 Z " fill="#24A8D4" transform="translate(108,49)"/>
</svg>
